<svg width="26" height="23" viewBox="0 0 26 23" fill="none" xmlns="http://www.w3.org/2000/svg">
<path d="M10.5389 22.5711C10.6733 22.7069 10.8335 22.8148 11.0102 22.8884C11.1869 22.9621 11.3766 23 11.5682 23C11.7597 23 11.9494 22.9621 12.1261 22.8884C12.3028 22.8148 12.463 22.7069 12.5974 22.5711C12.7318 22.4352 12.8377 22.2741 12.909 22.0971C12.9802 21.9202 13.0154 21.7309 13.0124 21.5402C13.0094 21.3496 12.9684 21.1615 12.8916 20.9868C12.8149 20.8121 12.704 20.6544 12.5654 20.5228L4.81033 12.9174L24.5556 12.9174C24.9387 12.9174 25.3061 12.766 25.5769 12.4964C25.8478 12.2269 26 11.8612 26 11.48C26 11.0988 25.8478 10.7332 25.5769 10.4636C25.3061 10.194 24.9387 10.0426 24.5556 10.0426L4.81755 10.0426L12.5669 2.44589C12.8329 2.177 12.982 1.81478 12.982 1.43742C12.982 1.06007 12.8329 0.697844 12.5669 0.428945C12.3009 0.160046 11.9392 0.00604089 11.5601 0.000173357C11.1809 -0.00569417 10.8147 0.137047 10.5403 0.397583L0.537725 10.205C0.367404 10.3722 0.23216 10.5714 0.139848 10.791C0.0475383 11.0106 1.41576e-06 11.2463 1.40535e-06 11.4843C1.39495e-06 11.7224 0.0475382 11.9581 0.139848 12.1777C0.23216 12.3973 0.367404 12.5965 0.537725 12.7636L10.5403 22.5711L10.5389 22.5711Z" />
</svg>
